<svg width="149" height="149" viewBox="0 0 149 149" fill="none" xmlns="http://www.w3.org/2000/svg">
<path d="M117.958 18.625H31.0417C24.1841 18.625 18.625 24.1841 18.625 31.0417V117.958C18.625 124.816 24.1841 130.375 31.0417 130.375H117.958C124.816 130.375 130.375 124.816 130.375 117.958V31.0417C130.375 24.1841 124.816 18.625 117.958 18.625Z" stroke="white" stroke-width="2" stroke-linecap="round" stroke-linejoin="round"/>
<path d="M52.7705 62.0833C57.9137 62.0833 62.083 57.914 62.083 52.7708C62.083 47.6277 57.9137 43.4583 52.7705 43.4583C47.6274 43.4583 43.458 47.6277 43.458 52.7708C43.458 57.914 47.6274 62.0833 52.7705 62.0833Z" stroke="white" stroke-width="2" stroke-linecap="round" stroke-linejoin="round"/>
<path d="M130.375 93.125L99.3337 62.0833L31.042 130.375" stroke="white" stroke-width="2" stroke-linecap="round" stroke-linejoin="round"/>
<path d="M65 94.9091L50.625 79L19 114" stroke="white" stroke-width="2" stroke-linecap="round" stroke-linejoin="round"/>
</svg>
