<svg width="35" height="35" viewBox="0 0 35 35" fill="none" xmlns="http://www.w3.org/2000/svg">
<path fill-rule="evenodd" clip-rule="evenodd" d="M27.9126 18.8708C27.9709 18.4333 28.0001 17.9813 28.0001 17.5C28.0001 17.0333 27.9709 16.5667 27.9126 16.1292L30.873 13.825C31.0006 13.7199 31.0877 13.5737 31.1196 13.4115C31.1515 13.2493 31.1262 13.0811 31.048 12.9354L28.248 8.09375C28.1656 7.94729 28.0339 7.83472 27.8765 7.776C27.719 7.71727 27.5458 7.71618 27.3876 7.77292L23.9022 9.17292C23.173 8.61875 22.4001 8.15209 21.5397 7.80209L21.0147 4.09792C20.9888 3.93099 20.904 3.77885 20.7756 3.66914C20.6471 3.55942 20.4836 3.49941 20.3147 3.5H14.7147C14.3647 3.5 14.0876 3.74792 14.0292 4.09792L13.5042 7.80209C12.6438 8.15209 11.8563 8.63334 11.1417 9.17292L7.65632 7.77292C7.33549 7.65625 6.97091 7.77292 6.79591 8.09375L3.98132 12.9354C3.90309 13.0811 3.87777 13.2493 3.90968 13.4115C3.94159 13.5737 4.02875 13.7199 4.15632 13.825L7.11674 16.1292C7.04382 16.5667 7.01466 17.0333 7.01466 17.5C7.01466 17.9667 7.04382 18.4333 7.11674 18.8708L4.15632 21.175C4.02875 21.2802 3.94159 21.4263 3.90968 21.5885C3.87777 21.7507 3.90309 21.919 3.98132 22.0646L6.78132 26.9063C6.95632 27.2271 7.32091 27.3292 7.64174 27.2271L11.1272 25.8271C11.8563 26.3813 12.6292 26.8479 13.4897 27.1979L14.0147 30.9021C14.0876 31.2521 14.3647 31.5 14.7147 31.5H20.3147C20.6647 31.5 20.9417 31.2521 21.0001 30.9021L21.5251 27.1979C22.3855 26.8479 23.173 26.3813 23.8876 25.8271L27.373 27.2271C27.6938 27.3438 28.0584 27.2271 28.2334 26.9063L31.0334 22.0646C31.2084 21.7438 31.1355 21.35 30.8584 21.175L27.9272 18.8708H27.9126ZM17.5001 22.75C14.6126 22.75 12.2501 20.3875 12.2501 17.5C12.2501 14.6125 14.6126 12.25 17.5001 12.25C20.3876 12.25 22.7501 14.6125 22.7501 17.5C22.7501 20.3875 20.3876 22.75 17.5001 22.75Z" fill="#DEDEDE"/>
</svg>
