<svg width="45" height="45" viewBox="0 0 45 45" fill="none" xmlns="http://www.w3.org/2000/svg">
<path d="M4 5.75C4 4.75544 4.39509 3.80161 5.09835 3.09835C5.80161 2.39509 6.75544 2 7.75 2H37.75C38.7446 2 39.6984 2.39509 40.4016 3.09835C41.1049 3.80161 41.5 4.75544 41.5 5.75V11.375C41.5 12.3696 41.1049 13.3234 40.4016 14.0267C39.6984 14.7299 38.7446 15.125 37.75 15.125H7.75C6.75544 15.125 5.80161 14.7299 5.09835 14.0267C4.39509 13.3234 4 12.3696 4 11.375V5.75ZM9.625 7.625H13.375V11.375H9.625V7.625ZM19 7.625H22.75V11.375H19V7.625Z" fill="#D9D9D9"/>
<path d="M4 20.75C4 19.7554 4.39509 18.8016 5.09835 18.0984C5.80161 17.3951 6.75544 17 7.75 17H37.75C38.7446 17 39.6984 17.3951 40.4016 18.0984C41.1049 18.8016 41.5 19.7554 41.5 20.75V26.375C41.5 27.3696 41.1049 28.3234 40.4016 29.0267C39.6984 29.7299 38.7446 30.125 37.75 30.125H7.75C6.75544 30.125 5.80161 29.7299 5.09835 29.0267C4.39509 28.3234 4 27.3696 4 26.375V20.75ZM9.625 22.625H13.375V26.375H9.625V22.625ZM19 22.625H22.75V26.375H19V22.625Z" fill="#878787"/>
<path d="M3.75 35.625C3.75 34.6304 4.14509 33.6766 4.84835 32.9734C5.55161 32.2701 6.50544 31.875 7.5 31.875H37.5C38.4946 31.875 39.4484 32.2701 40.1516 32.9734C40.8549 33.6766 41.25 34.6304 41.25 35.625V41.25C41.25 42.2446 40.8549 43.1984 40.1516 43.9016C39.4484 44.6049 38.4946 45 37.5 45H7.5C6.50544 45 5.55161 44.6049 4.84835 43.9016C4.14509 43.1984 3.75 42.2446 3.75 41.25V35.625ZM9.375 37.5H13.125V41.25H9.375V37.5ZM18.75 37.5H22.5V41.25H18.75V37.5Z" fill="#4C4C4C"/>
</svg>
