<svg width="35" height="35" viewBox="0 0 35 35" fill="none" xmlns="http://www.w3.org/2000/svg">
<path d="M12.3958 4.375H6.5625C5.35438 4.375 4.375 5.35438 4.375 6.5625V12.3958C4.375 13.604 5.35438 14.5833 6.5625 14.5833H12.3958C13.604 14.5833 14.5833 13.604 14.5833 12.3958V6.5625C14.5833 5.35438 13.604 4.375 12.3958 4.375Z" fill="#DEDEDE"/>
<path d="M28.4376 4.375H22.6042C21.3961 4.375 20.4167 5.35438 20.4167 6.5625V12.3958C20.4167 13.604 21.3961 14.5833 22.6042 14.5833H28.4376C29.6457 14.5833 30.6251 13.604 30.6251 12.3958V6.5625C30.6251 5.35438 29.6457 4.375 28.4376 4.375Z" fill="#DEDEDE"/>
<path d="M28.4376 20.4167H22.6042C21.3961 20.4167 20.4167 21.396 20.4167 22.6042V28.4375C20.4167 29.6456 21.3961 30.625 22.6042 30.625H28.4376C29.6457 30.625 30.6251 29.6456 30.6251 28.4375V22.6042C30.6251 21.396 29.6457 20.4167 28.4376 20.4167Z" fill="#DEDEDE"/>
<path d="M12.3958 20.4167H6.5625C5.35438 20.4167 4.375 21.396 4.375 22.6042V28.4375C4.375 29.6456 5.35438 30.625 6.5625 30.625H12.3958C13.604 30.625 14.5833 29.6456 14.5833 28.4375V22.6042C14.5833 21.396 13.604 20.4167 12.3958 20.4167Z" fill="#DEDEDE"/>
</svg>
