<svg width="91" height="105" viewBox="0 0 91 105" fill="none" xmlns="http://www.w3.org/2000/svg">
<path d="M45.0813 105L0.000244141 78.7498V26.2498L45.0813 52.4998V105Z" fill="#1750AC"/>
<path d="M45.0813 105L90.1624 78.7498V26.2498L45.0813 52.4998V105Z" fill="#E67E22"/>
<path d="M45.0811 52.5001L0 26.25L45.0811 0L90.1622 26.25L45.0811 52.5001Z" fill="#1E65D6"/>
<path d="M49.0002 96.05V53.69L54.8199 50.33L69.2652 67.97L66.3034 69.68L80.6968 35.39L86.5684 32V74.36L78.4105 79.07V52.61L79.8654 52.19L70.4604 74.54L65.0564 77.66L55.7033 66.14L57.1062 64.91V91.37L49.0002 96.05Z" fill="white"/>
<path d="M62.7016 37.0183C59.6878 38.7583 56.6047 39.9783 53.4524 40.6783C50.3001 41.3383 46.8187 41.6083 43.0081 41.4883L43.0601 35.3983C45.5889 35.4983 47.9445 35.3583 50.1269 34.9783C52.3093 34.5583 54.3531 33.7983 56.2583 32.6983C57.9904 31.6983 59.0123 30.7483 59.3241 29.8483C59.6705 28.9283 59.2894 28.1483 58.1809 27.5083C57.1763 26.9283 56.0505 26.6383 54.8034 26.6383C53.5563 26.6383 52.188 26.8083 50.6985 27.1483C49.2435 27.4683 47.6847 27.8683 46.0219 28.3483C44.3938 28.8083 42.7137 29.2383 40.9816 29.6383C39.215 30.0183 37.4136 30.2783 35.5776 30.4183C33.7417 30.5183 31.9057 30.3983 30.0697 30.0583C28.1991 29.6983 26.3285 28.9783 24.4579 27.8983C22.2062 26.5983 20.8033 25.1683 20.249 23.6083C19.7294 22.0283 20.0238 20.4383 21.1323 18.8383C22.2062 17.2183 24.0075 15.6783 26.5363 14.2183C29.0998 12.7383 31.8884 11.6483 34.9021 10.9483C37.9506 10.2283 40.947 9.91829 43.8915 10.0183L43.8395 16.1083C41.5879 16.0883 39.6133 16.2483 37.9159 16.5883C36.2531 16.9083 34.7116 17.4783 33.2913 18.2983C31.8711 19.1183 31.0224 19.9283 30.7452 20.7283C30.4335 21.5083 30.7799 22.1883 31.7845 22.7683C32.7198 23.3083 33.7936 23.5683 35.0061 23.5483C36.1839 23.5083 37.4829 23.3183 38.9032 22.9783C40.3581 22.6183 41.8996 22.2083 43.5278 21.7483C45.1905 21.2683 46.9053 20.8383 48.6719 20.4583C50.4386 20.0783 52.2573 19.8483 54.1279 19.7683C55.9985 19.6483 57.9038 19.7883 59.8437 20.1883C61.7489 20.5683 63.6542 21.3083 65.5594 22.4083C69.0582 24.4283 70.5651 26.7383 70.0801 29.3383C69.5605 31.9183 67.101 34.4783 62.7016 37.0183Z" fill="white"/>
<path d="M10.0002 79.36V37L18.1582 41.71V84.07L10.0002 79.36ZM16.2356 82.96V74.8L36.3447 86.41V94.57L16.2356 82.96ZM16.2356 65.26V57.4L34.5261 67.96V75.82L16.2356 65.26ZM16.2356 48.7V40.6L36.0849 52.06V60.16L16.2356 48.7Z" fill="white"/>
</svg>
